<?xml version="1.0" standalone="no"?>
<!DOCTYPE svg PUBLIC "-//W3C//DTD SVG 20010904//EN"
 "http://www.w3.org/TR/2001/REC-SVG-20010904/DTD/svg10.dtd">
<svg version="1.0" xmlns="http://www.w3.org/2000/svg"
 width="494.000000pt" height="505.000000pt" viewBox="0 0 494.000000 505.000000"
 preserveAspectRatio="xMidYMid meet">

<g transform="translate(0.000000,505.000000) scale(0.100000,-0.100000)"
fill="#000000" stroke="none">
<path d="M2440 5023 c-19 -2 -78 -10 -130 -19 -586 -100 -926 -463 -1060
-1133 -41 -205 -58 -380 -70 -726 -29 -830 -42 -938 -130 -1075 -17 -26 -30
-56 -30 -67 0 -32 41 -85 93 -120 102 -68 391 -137 711 -169 l69 -7 -5 -81
c-7 -100 -38 -167 -110 -238 -108 -105 -235 -173 -586 -314 -130 -52 -293
-122 -362 -155 -327 -157 -529 -354 -620 -606 -27 -76 -60 -226 -60 -274 0
-19 61 -19 2326 -19 l2326 0 -6 57 c-35 296 -189 540 -451 718 -98 66 -334
179 -575 275 -365 146 -507 224 -608 335 -73 79 -92 125 -92 218 l0 76 33 6
c17 3 81 12 140 20 206 28 463 97 572 153 66 34 123 80 140 113 16 30 16 33
-14 81 -88 141 -111 339 -111 974 0 544 -16 790 -66 1048 -32 161 -73 287
-129 393 -136 259 -316 376 -606 398 -82 7 -101 12 -149 41 -112 68 -304 111
-440 97z"/>
</g>
</svg>
