<?xml version="1.0" standalone="no"?>
<!DOCTYPE svg PUBLIC "-//W3C//DTD SVG 20010904//EN"
 "http://www.w3.org/TR/2001/REC-SVG-20010904/DTD/svg10.dtd">
<svg version="1.0" xmlns="http://www.w3.org/2000/svg"
 width="500.000000pt" height="500.000000pt" viewBox="0 0 500.000000 500.000000"
 preserveAspectRatio="xMidYMid meet">

<g transform="translate(0.000000,500.000000) scale(0.100000,-0.100000)"
fill="#000000" stroke="none">
<path d="M2585 4951 c-66 -27 -187 -74 -270 -106 -396 -153 -458 -180 -610
-268 -92 -53 -212 -170 -249 -242 -57 -114 -58 -123 -65 -613 l-6 -454 -25
-19 c-61 -46 -62 -50 -56 -117 11 -103 64 -361 95 -457 42 -127 58 -190 72
-270 14 -85 61 -189 121 -270 24 -33 47 -68 51 -78 8 -20 -19 -326 -33 -377
-13 -46 -19 -54 -57 -74 -45 -23 -57 -45 -98 -173 -19 -61 -43 -120 -53 -131
-17 -20 -56 -41 -532 -287 -140 -72 -282 -147 -315 -165 -33 -19 -116 -64
-185 -101 -207 -113 -236 -133 -244 -169 -3 -18 -6 -136 -6 -262 0 -243 7
-285 48 -307 15 -8 696 -11 2334 -11 l2313 0 27 25 c15 14 30 40 33 57 3 18 5
142 3 275 -3 227 -4 244 -23 262 -11 11 -114 70 -230 131 -115 61 -214 115
-221 120 -6 6 -98 54 -205 108 -272 138 -596 312 -608 325 -5 7 -23 59 -41
117 -36 117 -68 172 -109 190 -45 18 -49 33 -82 318 -13 112 -9 132 40 193 65
82 119 203 136 309 9 52 33 147 55 210 35 106 55 193 95 420 19 110 19 137 -2
155 -10 7 -29 23 -43 34 l-25 19 -5 459 c-6 435 -7 461 -27 518 -34 95 -72
155 -144 225 -79 79 -165 126 -309 170 -308 94 -368 118 -390 160 -14 27 -12
82 5 123 38 93 12 97 -160 28z"/>
</g>
</svg>
